#N canvas 296 99 801 595 12;
#X obj 37 342 *~;
#X obj 253 360 *~;
#X obj 37 403 dac~ 1 2, f 31;
#X obj 37 189 hip~ 25;
#X obj 253 279 *~;
#X obj 253 200 lop~ 20000;
#X obj 37 278 *~;
#N canvas 2 149 606 300 control 0;
#X obj 15 9 inlet;
#X obj 15 154 lop~ 5;
#X obj 242 127 pow 2;
#X obj 242 149 lop~ 5;
#X obj 135 131 pow 2;
#X obj 135 153 lop~ 5;
#X obj 366 79 loadbang;
#X obj 349 188 clip 25 5000;
#X obj 459 189 clip 1000 20000;
#X obj 358 133 f \$3;
#X obj 409 131 f \$4;
#X obj 126 61 clip 0 1;
#X obj 237 55 clip 0 1;
#X obj 366 101 t b b b b, f 26;
#X obj 483 135 f \$1;
#X obj 534 133 f \$2;
#X obj 353 212 s \$0-low-cross;
#X obj 462 211 s \$0-high-cross;
#X obj 242 181 s~ \$0-tweeter-vol;
#X obj 135 185 s~ \$0-woof-vol;
#X obj 15 185 s~ \$0-main-vol;
#X obj 15 32 route main-vol woof-vol tweet-vol lo-x hi-x, f 80;
#X obj 15 56 clip 0 1;
#X connect 0 0 21 0;
#X connect 1 0 20 0;
#X connect 2 0 3 0;
#X connect 3 0 18 0;
#X connect 4 0 5 0;
#X connect 5 0 19 0;
#X connect 6 0 13 0;
#X connect 7 0 16 0;
#X connect 8 0 17 0;
#X connect 9 0 11 0;
#X connect 10 0 12 0;
#X connect 11 0 4 0;
#X connect 12 0 2 0;
#X connect 13 0 9 0;
#X connect 13 1 10 0;
#X connect 13 2 14 0;
#X connect 13 3 15 0;
#X connect 14 0 7 0;
#X connect 15 0 8 0;
#X connect 21 0 22 0;
#X connect 21 1 11 0;
#X connect 21 2 12 0;
#X connect 21 3 7 0;
#X connect 21 4 8 0;
#X connect 22 0 1 0;
#X restore 458 102 pd control;
#X obj 37 211 hip~ 25;
#X text 188 36 go direct to the speaker \, but still protected by cross
over;
#X obj 37 121 lop~;
#X obj 254 123 hip~;
#X obj 37 143 lop~;
#X obj 254 148 hip~;
#X obj 313 135 clip 1300 20000;
#X obj 88 132 clip 29 4000;
#X obj 253 222 lop~ 20000;
#X text 447 148 Arg 1: woof freq;
#X text 444 171 Arg 2: tweet freq;
#X text 441 219 Arg 4: tweeter vol (0-1 float);
#X text 442 196 Arg 3: woof vol (0-1 float);
#X obj 314 113 r \$0-high-cross;
#X obj 97 91 r \$0-low-cross;
#X obj 55 255 r~ \$0-woof-vol;
#X obj 271 253 r~ \$0-tweeter-vol;
#X obj 38 18 inlet~ fwd, f 60;
#X obj 55 318 r~ \$0-main-vol;
#X obj 274 337 r~ \$0-main-vol;
#X obj 488 30 inlet;
#X connect 0 0 2 0;
#X connect 1 0 2 1;
#X connect 3 0 8 0;
#X connect 4 0 1 0;
#X connect 5 0 16 0;
#X connect 6 0 0 0;
#X connect 8 0 6 0;
#X connect 10 0 12 0;
#X connect 11 0 13 0;
#X connect 12 0 3 0;
#X connect 13 0 5 0;
#X connect 14 0 11 1;
#X connect 14 0 13 1;
#X connect 15 0 10 1;
#X connect 15 0 12 1;
#X connect 16 0 4 0;
#X connect 21 0 14 0;
#X connect 22 0 15 0;
#X connect 23 0 6 1;
#X connect 24 0 4 1;
#X connect 25 0 11 0;
#X connect 25 0 10 0;
#X connect 26 0 0 1;
#X connect 27 0 1 1;
#X connect 28 0 7 0;
