#N canvas 205 85 1260 631 12;
#X declare -path ../j-bibliothek;
#N canvas 211 206 450 300 init 0;
#X obj 39 16 loadbang;
#X obj 39 40 t b b b b b;
#X obj 94 105 s load-vol;
#X obj 119 74 s start-metro;
#X msg 270 123 \; pd dsp 1;
#X connect 0 0 1 0;
#X connect 1 3 2 0;
#X connect 1 4 3 0;
#X connect 1 4 4 0;
#X restore 15 11 pd init;
#X obj 917 419 r load-vol;
#X obj 917 443 f 0.5;
#X obj 704 551 j-cross-over 1800 1800 1 0.75;
#X msg 912 513 main-vol \$1;
#N canvas 575 136 838 417 j-bibliothek-header 0;
#X obj 10 63 loadbang;
#X obj 10 269 s j-loadbang;
#X text 231 19 place this in your main patch when using jwy-bibliothek
;
#X obj 10 86 t b b;
#X obj 107 81 bng 15 250 50 0 empty empty empty 17 7 0 10 -262144 -1
-1;
#X text 131 82 manually reload the global path;
#X obj 13 335 text define j-path-text;
#X msg 42 113 dir;
#X obj 42 136 pdcontrol;
#X obj 42 231 text set j-path-text;
#X obj 42 159 list fromsymbol;
#X obj 42 182 t a b;
#X msg 74 207 0;
#X text 118 138 sends out main gets where thito other objects;
#X obj 141 276 j-get-local-path;
#X text 268 276 <-- use this to get the local path;
#X text 409 62 *** weird work-around until i figure out how to compile
a library;
#X obj 5 22 declare -path ../j-bibliothek;
#X connect 0 0 3 0;
#X connect 3 0 1 0;
#X connect 3 1 7 0;
#X connect 4 0 3 0;
#X connect 7 0 8 0;
#X connect 8 0 10 0;
#X connect 10 0 11 0;
#X connect 11 0 9 0;
#X connect 11 1 12 0;
#X connect 12 0 9 1;
#X restore 15 36 pd j-bibliothek-header;
#X obj 449 91 r 2-bass;
#X obj 355 45 r notes-2-bass;
#N canvas 0 25 1176 685 basss-params 0;
#X obj 77 225 list prepend ampEnv;
#X obj 77 249 list trim;
#X obj 78 285 s 2-bass;
#X obj 741 359 list trim;
#X obj 742 395 s 2-bass;
#X obj 571 165 list trim;
#X obj 572 201 s 2-bass;
#X obj 790 180 list trim;
#X obj 791 216 s 2-bass;
#X obj 741 335 list prepend ampEnvOff;
#X obj 790 156 list prepend freqEnvOff;
#X obj 571 141 list prepend freqEnv;
#X obj 386 446 s 2-bass;
#X msg 387 416 freqDepth \$1;
#X obj 119 463 s 2-bass;
#X msg 120 433 bpm \$1;
#X msg 741 276 new \, 0 1 0;
#X msg 790 98 new \, 0.5 0.2 0;
#X msg 639 108 new \, 0.5 0 0;
#X floatatom 432 382 5 0 0 0 - - -;
#X msg 517 38 new \, 1 0.01 0 \, 0.5 2 0.01;
#X obj 218 470 s 2-bass;
#X msg 220 440 portamento \$1;
#X obj 511 593 list trim;
#X obj 512 629 s 2-bass;
#X obj 511 569 list prepend ampSus;
#X obj 791 567 list trim;
#X obj 792 603 s 2-bass;
#X obj 791 543 list prepend freqSus;
#X obj 119 46 bng 15 250 50 0 empty empty empty 17 7 0 10 -262144 -1
-1;
#X obj 119 66 s \$0-loadIt;
#X obj 119 358 r \$0-loadIt;
#X obj 235 371 r \$0-loadIt;
#X obj 381 352 r \$0-loadIt;
#X obj 521 483 r \$0-loadIt;
#X obj 783 452 r \$0-loadIt;
#X obj 76 153 r \$0-loadIt;
#X obj 739 249 r \$0-loadIt;
#X obj 786 65 r \$0-loadIt;
#X obj 703 27 r \$0-loadIt;
#X obj 195 29 inlet;
#X msg 218 402 1000;
#X msg 791 484 new \, 0.3 2 1 \, 0.5 2 3;
#X msg 387 381 12;
#X msg 511 510 new \, 0.5 1 0 \, 0 1 2 \, 0.3 1 3 \, 0.7 1 4;
#X msg 257 403 5;
#X msg 295 407 3;
#X msg 560 75 new \, 0 0.01 0 \, 0.125 0.01 0.01;
#X msg 80 182 new \, 1 0.05 0 \, 0.2 0.125 0.125 \, 0.7 0.25 0.125
\, 0.1 0.125 0.25, f 61;
#X msg 120 398 760;
#X connect 0 0 1 0;
#X connect 1 0 2 0;
#X connect 3 0 4 0;
#X connect 5 0 6 0;
#X connect 7 0 8 0;
#X connect 9 0 3 0;
#X connect 10 0 7 0;
#X connect 11 0 5 0;
#X connect 13 0 12 0;
#X connect 15 0 14 0;
#X connect 16 0 9 0;
#X connect 17 0 10 0;
#X connect 18 0 11 0;
#X connect 19 0 13 0;
#X connect 20 0 11 0;
#X connect 22 0 21 0;
#X connect 23 0 24 0;
#X connect 25 0 23 0;
#X connect 26 0 27 0;
#X connect 28 0 26 0;
#X connect 29 0 30 0;
#X connect 31 0 49 0;
#X connect 32 0 41 0;
#X connect 33 0 43 0;
#X connect 34 0 44 0;
#X connect 35 0 42 0;
#X connect 36 0 48 0;
#X connect 37 0 16 0;
#X connect 38 0 17 0;
#X connect 39 0 47 0;
#X connect 40 0 30 0;
#X connect 41 0 22 0;
#X connect 42 0 28 0;
#X connect 43 0 13 0;
#X connect 44 0 25 0;
#X connect 45 0 22 0;
#X connect 46 0 22 0;
#X connect 47 0 11 0;
#X connect 48 0 0 0;
#X connect 49 0 15 0;
#X restore 664 45 pd basss-params;
#X obj 667 20 bng 15 250 50 0 empty empty empty 17 7 0 10 -262144 -1
-1;
#X obj 744 236 r 2-bass;
#X obj 648 96 r notes-2-bass;
#X obj 648 120 unpack;
#X obj 648 144 mtof;
#X obj 648 192 ftom;
#X obj 648 216 pack, f 6;
#X obj 400 126 j-bass-synth~ 1;
#X obj 643 266 j-bass-synth~ 1;
#X obj 913 300 r 2-bass;
#X obj 817 160 r notes-2-bass;
#X obj 817 184 unpack;
#X obj 817 208 mtof;
#X obj 817 256 ftom;
#X obj 817 280 pack, f 6;
#X obj 812 330 j-bass-synth~ 1;
#X obj 818 230 * 5;
#X obj 648 168 * -3;
#X obj 400 150 /~ 1.8;
#X obj 805 391 /~ 12;
#X obj 643 302 /~ 6;
#X obj 119 74 r start-metro;
#X obj 119 161 metro 500;
#X obj 207 161 metro 750;
#X obj 148 338 s notes-2-bass;
#X obj 151 260 unpack;
#X obj 151 308 pack, f 12;
#X obj 151 284 makenote 100 112;
#X msg 119 185 45 100;
#X msg 207 185 50 100;
#X connect 1 0 2 0;
#X connect 2 0 4 0;
#X connect 4 0 3 1;
#X connect 6 0 16 1;
#X connect 7 0 16 0;
#X connect 9 0 8 0;
#X connect 10 0 17 1;
#X connect 11 0 12 0;
#X connect 12 0 13 0;
#X connect 12 1 15 1;
#X connect 13 0 26 0;
#X connect 14 0 15 0;
#X connect 15 0 17 0;
#X connect 16 0 27 0;
#X connect 17 0 29 0;
#X connect 18 0 24 1;
#X connect 19 0 20 0;
#X connect 20 0 21 0;
#X connect 20 1 23 1;
#X connect 21 0 25 0;
#X connect 22 0 23 0;
#X connect 23 0 24 0;
#X connect 24 0 28 0;
#X connect 25 0 22 0;
#X connect 26 0 14 0;
#X connect 27 0 3 0;
#X connect 28 0 3 0;
#X connect 29 0 3 0;
#X connect 30 0 31 0;
#X connect 30 0 32 0;
#X connect 31 0 37 0;
#X connect 32 0 38 0;
#X connect 34 0 36 0;
#X connect 34 1 36 1;
#X connect 35 0 33 0;
#X connect 36 0 35 0;
#X connect 36 1 35 1;
#X connect 37 0 34 0;
#X connect 38 0 34 0;
