#N canvas 212 163 809 500 12;
#N canvas 211 206 450 300 init 1;
#X obj 39 16 loadbang;
#X obj 39 40 t b b b b b;
#X obj 94 105 s load-vol;
#X obj 119 74 s start-metro;
#X connect 0 0 1 0;
#X connect 1 3 2 0;
#X connect 1 4 3 0;
#X restore 15 11 pd init;
#X obj 239 110 vline~;
#X obj 239 134 *~;
#X obj 228 419 dac~ 1 2;
#X obj 231 373 *~;
#X obj 285 375 *~;
#X obj 303 340 lop~ 10;
#X obj 303 274 r load-vol;
#X obj 303 298 f 0.5;
#X obj 216 286 *~ 1;
#X obj 146 135 osc~ 223;
#X obj 146 199 *~, f 13;
#X obj 146 159 *~ 0.5;
#X obj 216 48 metro 500;
#X obj 215 19 r start-metro;
#X msg 216 75 1 8 \, 0 300 8;
#X connect 1 0 2 0;
#X connect 1 0 2 1;
#X connect 2 0 11 1;
#X connect 4 0 3 0;
#X connect 5 0 3 1;
#X connect 6 0 4 1;
#X connect 6 0 5 1;
#X connect 7 0 8 0;
#X connect 8 0 6 0;
#X connect 9 0 4 0;
#X connect 9 0 5 0;
#X connect 10 0 12 0;
#X connect 11 0 9 0;
#X connect 12 0 11 0;
#X connect 13 0 15 0;
#X connect 14 0 13 0;
#X connect 15 0 1 0;
