#N canvas 180 117 1260 631 12;
#X declare -path ../j-bibliothek;
#N canvas 211 206 450 300 init 1;
#X obj 39 16 loadbang;
#X obj 39 40 t b b b b b;
#X obj 94 105 s load-vol;
#X msg 270 123 \; pd dsp 1;
#X connect 0 0 1 0;
#X connect 1 3 2 0;
#X connect 1 4 3 0;
#X restore 15 11 pd init;
#X obj 418 205 r load-vol;
#X obj 418 229 f 0.5;
#X obj 205 337 j-cross-over 1800 1800 1 0.75;
#X msg 413 299 main-vol \$1;
#N canvas 575 136 838 417 j-bibliothek-header 0;
#X obj 10 63 loadbang;
#X obj 10 269 s j-loadbang;
#X text 231 19 place this in your main patch when using jwy-bibliothek
;
#X obj 10 86 t b b;
#X obj 107 81 bng 15 250 50 0 empty empty empty 17 7 0 10 #fcfcfc #000000
#000000;
#X text 131 82 manually reload the global path;
#X obj 13 335 text define j-path-text;
#X msg 42 113 dir;
#X obj 42 136 pdcontrol;
#X obj 42 231 text set j-path-text;
#X obj 42 159 list fromsymbol;
#X obj 42 182 t a b;
#X msg 74 207 0;
#X text 118 138 sends out main gets where thito other objects;
#X obj 141 276 j-get-local-path;
#X text 268 276 <-- use this to get the local path;
#X text 409 62 *** weird work-around until i figure out how to compile
a library;
#X obj 5 22 declare -path ../j-bibliothek;
#X connect 0 0 3 0;
#X connect 3 0 1 0;
#X connect 3 1 7 0;
#X connect 4 0 3 0;
#X connect 7 0 8 0;
#X connect 8 0 10 0;
#X connect 10 0 11 0;
#X connect 11 0 9 0;
#X connect 11 1 12 0;
#X connect 12 0 9 1;
#X restore 15 36 pd j-bibliothek-header;
#X obj 314 167 readsf~ 2;
#X obj 285 80 t b b;
#X msg 300 113 start;
#X obj 285 56 r load-vol;
#X msg 358 111 open fly.wav;
#X connect 1 0 2 0;
#X connect 2 0 4 0;
#X connect 4 0 3 1;
#X connect 6 0 3 0;
#X connect 7 0 8 0;
#X connect 7 1 10 0;
#X connect 8 0 6 0;
#X connect 9 0 7 0;
#X connect 10 0 6 0;
