#N canvas 212 163 809 500 12;
#N canvas 211 206 450 300 init 0;
#X obj 39 16 loadbang;
#X obj 39 40 t b b b b b;
#X obj 94 105 s load-vol;
#X obj 119 74 s start-metro;
#X msg 270 123 \; pd dsp 1;
#X connect 0 0 1 0;
#X connect 1 3 2 0;
#X connect 1 4 3 0;
#X connect 1 4 4 0;
#X restore 15 11 pd init;
#X obj 239 110 vline~;
#X obj 239 134 *~;
#X obj 280 210 r load-vol;
#X obj 280 234 f 0.5;
#X obj 146 135 osc~ 223;
#X obj 146 199 *~, f 13;
#X obj 146 159 *~ 0.5;
#X obj 216 48 metro 500;
#X obj 215 19 r start-metro;
#X msg 216 75 1 8 \, 0 300 8;
#X obj 169 12 tgl 15 0 empty empty empty 17 7 0 10 -262144 -1 -1 0
1;
#X obj 180 346 j-cross-over 1800 1800 1 0.75;
#X msg 275 304 main-vol \$1;
#X connect 1 0 2 0;
#X connect 1 0 2 1;
#X connect 2 0 6 1;
#X connect 3 0 4 0;
#X connect 4 0 13 0;
#X connect 5 0 7 0;
#X connect 6 0 12 0;
#X connect 7 0 6 0;
#X connect 8 0 10 0;
#X connect 9 0 8 0;
#X connect 10 0 1 0;
#X connect 11 0 8 0;
#X connect 13 0 12 0;
